<?xml version="1.0" encoding="UTF-8" standalone="no"?>
<!DOCTYPE svg PUBLIC "-//W3C//DTD SVG 1.1//EN"
 "http://www.w3.org/Graphics/SVG/1.1/DTD/svg11.dtd">
<!-- Generated by graphviz version 10.0.1 (20240210.2158)
 -->
<!-- Title: /home/codeakrobat/neurabsd/CoreSeed/src/main.cpp Pages: 1 -->
<svg width="489pt" height="98pt"
 viewBox="0.00 0.00 489.38 98.25" xmlns="http://www.w3.org/2000/svg" xmlns:xlink="http://www.w3.org/1999/xlink">
<g id="graph0" class="graph" transform="scale(1 1) rotate(0) translate(4 94.25)">
<title>/home/codeakrobat/neurabsd/CoreSeed/src/main.cpp</title>
<!-- Node1 -->
<g id="Node000001" class="node">
<title>Node1</title>
<g id="a_Node000001"><a xlink:title="Main entry point for the CoreSeed graphical installer.">
<polygon fill="#999999" stroke="#666666" points="334.38,-90.25 175.88,-90.25 175.88,-56.75 334.38,-56.75 334.38,-90.25"/>
<text text-anchor="start" x="183.88" y="-76.75" font-family="Helvetica,sans-Serif" font-size="10.00">/home/codeakrobat/neurabsd</text>
<text text-anchor="middle" x="255.12" y="-64" font-family="Helvetica,sans-Serif" font-size="10.00">/CoreSeed/src/main.cpp</text>
</a>
</g>
</g>
<!-- Node2 -->
<g id="Node000002" class="node">
<title>Node2</title>
<g id="a_Node000002"><a xlink:title=" ">
<polygon fill="#e0e0e0" stroke="#999999" points="78.25,-20.75 0,-20.75 0,0 78.25,0 78.25,-20.75"/>
<text text-anchor="middle" x="39.12" y="-7.25" font-family="Helvetica,sans-Serif" font-size="10.00">QApplication</text>
</a>
</g>
</g>
<!-- Node1&#45;&gt;Node2 -->
<g id="edge1_Node000001_Node000002" class="edge">
<title>Node1&#45;&gt;Node2</title>
<g id="a_edge1_Node000001_Node000002"><a xlink:title=" ">
<path fill="none" stroke="#63b8ff" d="M197.81,-56.28C162.32,-46.24 117.4,-33.53 84.42,-24.19"/>
<polygon fill="#63b8ff" stroke="#63b8ff" points="85.75,-20.93 75.18,-21.58 83.85,-27.67 85.75,-20.93"/>
</a>
</g>
</g>
<!-- Node3 -->
<g id="Node000003" class="node">
<title>Node3</title>
<g id="a_Node000003"><a xlink:title=" ">
<polygon fill="#e0e0e0" stroke="#999999" points="154.12,-20.75 96.12,-20.75 96.12,0 154.12,0 154.12,-20.75"/>
<text text-anchor="middle" x="125.12" y="-7.25" font-family="Helvetica,sans-Serif" font-size="10.00">QWidget</text>
</a>
</g>
</g>
<!-- Node1&#45;&gt;Node3 -->
<g id="edge2_Node000001_Node000003" class="edge">
<title>Node1&#45;&gt;Node3</title>
<g id="a_edge2_Node000001_Node000003"><a xlink:title=" ">
<path fill="none" stroke="#63b8ff" d="M220.63,-56.28C200.67,-46.89 175.74,-35.17 156.36,-26.06"/>
<polygon fill="#63b8ff" stroke="#63b8ff" points="157.85,-22.9 147.32,-21.81 154.88,-29.23 157.85,-22.9"/>
</a>
</g>
</g>
<!-- Node4 -->
<g id="Node000004" class="node">
<title>Node4</title>
<g id="a_Node000004"><a xlink:title=" ">
<polygon fill="#e0e0e0" stroke="#999999" points="254.12,-20.75 172.12,-20.75 172.12,0 254.12,0 254.12,-20.75"/>
<text text-anchor="middle" x="213.12" y="-7.25" font-family="Helvetica,sans-Serif" font-size="10.00">QVBoxLayout</text>
</a>
</g>
</g>
<!-- Node1&#45;&gt;Node4 -->
<g id="edge3_Node000001_Node000004" class="edge">
<title>Node1&#45;&gt;Node4</title>
<g id="a_edge3_Node000001_Node000004"><a xlink:title=" ">
<path fill="none" stroke="#63b8ff" d="M244.09,-56.44C238.63,-48.49 232,-38.84 226.28,-30.52"/>
<polygon fill="#63b8ff" stroke="#63b8ff" points="229.29,-28.72 220.74,-22.46 223.52,-32.69 229.29,-28.72"/>
</a>
</g>
</g>
<!-- Node5 -->
<g id="Node000005" class="node">
<title>Node5</title>
<g id="a_Node000005"><a xlink:title=" ">
<polygon fill="#e0e0e0" stroke="#999999" points="322,-20.75 272.25,-20.75 272.25,0 322,0 322,-20.75"/>
<text text-anchor="middle" x="297.12" y="-7.25" font-family="Helvetica,sans-Serif" font-size="10.00">QLabel</text>
</a>
</g>
</g>
<!-- Node1&#45;&gt;Node5 -->
<g id="edge4_Node000001_Node000005" class="edge">
<title>Node1&#45;&gt;Node5</title>
<g id="a_edge4_Node000001_Node000005"><a xlink:title=" ">
<path fill="none" stroke="#63b8ff" d="M266.16,-56.44C271.62,-48.49 278.25,-38.84 283.97,-30.52"/>
<polygon fill="#63b8ff" stroke="#63b8ff" points="286.73,-32.69 289.51,-22.46 280.96,-28.72 286.73,-32.69"/>
</a>
</g>
</g>
<!-- Node6 -->
<g id="Node000006" class="node">
<title>Node6</title>
<g id="a_Node000006"><a xlink:title=" ">
<polygon fill="#e0e0e0" stroke="#999999" points="418.62,-20.75 339.62,-20.75 339.62,0 418.62,0 418.62,-20.75"/>
<text text-anchor="middle" x="379.12" y="-7.25" font-family="Helvetica,sans-Serif" font-size="10.00">QPushButton</text>
</a>
</g>
</g>
<!-- Node1&#45;&gt;Node6 -->
<g id="edge5_Node000001_Node000006" class="edge">
<title>Node1&#45;&gt;Node6</title>
<g id="a_edge5_Node000001_Node000006"><a xlink:title=" ">
<path fill="none" stroke="#63b8ff" d="M288.03,-56.28C306.98,-46.94 330.63,-35.28 349.08,-26.19"/>
<polygon fill="#63b8ff" stroke="#63b8ff" points="350.49,-29.4 357.91,-21.83 347.39,-23.12 350.49,-29.4"/>
</a>
</g>
</g>
<!-- Node7 -->
<g id="Node000007" class="node">
<title>Node7</title>
<g id="a_Node000007"><a xlink:title=" ">
<polygon fill="#e0e0e0" stroke="#999999" points="481.38,-20.75 436.88,-20.75 436.88,0 481.38,0 481.38,-20.75"/>
<text text-anchor="middle" x="459.12" y="-7.25" font-family="Helvetica,sans-Serif" font-size="10.00">QFont</text>
</a>
</g>
</g>
<!-- Node1&#45;&gt;Node7 -->
<g id="edge6_Node000001_Node000007" class="edge">
<title>Node1&#45;&gt;Node7</title>
<g id="a_edge6_Node000001_Node000007"><a xlink:title=" ">
<path fill="none" stroke="#63b8ff" d="M309.29,-56.34C340.8,-46.93 381.56,-34.74 425.51,-21.53"/>
<polygon fill="#63b8ff" stroke="#63b8ff" points="426.42,-24.91 434.99,-18.68 424.41,-18.21 426.42,-24.91"/>
</a>
</g>
</g>
</g>
</svg>
