<?xml version="1.0" encoding="UTF-8" standalone="no"?>
<!DOCTYPE svg PUBLIC "-//W3C//DTD SVG 1.1//EN"
 "http://www.w3.org/Graphics/SVG/1.1/DTD/svg11.dtd">
<!-- Generated by graphviz version 10.0.1 (20240210.2158)
 -->
<!-- Title: new&#45;file.serve_docs Pages: 1 -->
<svg width="267pt" height="47pt"
 viewBox="0.00 0.00 266.50 46.75" xmlns="http://www.w3.org/2000/svg" xmlns:xlink="http://www.w3.org/1999/xlink">
<g id="graph0" class="graph" transform="scale(1 1) rotate(0) translate(4 42.75)">
<title>new&#45;file.serve_docs</title>
<!-- Node1 -->
<g id="Node000001" class="node">
<title>Node1</title>
<g id="a_Node000001"><a xlink:title=" ">
<polygon fill="#999999" stroke="#666666" points="112.75,-20.75 0,-20.75 0,0 112.75,0 112.75,-20.75"/>
<text text-anchor="middle" x="56.38" y="-7.25" font-family="Helvetica,sans-Serif" font-size="10.00">new&#45;file.serve_docs</text>
</a>
</g>
</g>
<!-- Node1&#45;&gt;Node1 -->
<g id="edge2_Node000001_Node000001" class="edge">
<title>Node1&#45;&gt;Node1</title>
<g id="a_edge2_Node000001_Node000001"><a xlink:title=" ">
<path fill="none" stroke="#63b8ff" d="M32.65,-21.15C23.16,-29.81 31.07,-38.75 56.38,-38.75 70.22,-38.75 78.85,-36.08 82.29,-32.24"/>
<polygon fill="#63b8ff" stroke="#63b8ff" points="85.76,-31.77 80.39,-22.63 78.89,-33.12 85.76,-31.77"/>
</a>
</g>
</g>
<!-- Node2 -->
<g id="Node000002" class="node">
<title>Node2</title>
<g id="a_Node000002"><a xlink:href="namespacenew-file.html#a609c1f607988cd949b7e245b493fa211" target="_top" xlink:title=" ">
<polygon fill="white" stroke="#666666" points="258.5,-20.75 148.75,-20.75 148.75,0 258.5,0 258.5,-20.75"/>
<text text-anchor="middle" x="203.62" y="-7.25" font-family="Helvetica,sans-Serif" font-size="10.00">new&#45;file.build_docs</text>
</a>
</g>
</g>
<!-- Node1&#45;&gt;Node2 -->
<g id="edge1_Node000001_Node000002" class="edge">
<title>Node1&#45;&gt;Node2</title>
<g id="a_edge1_Node000001_Node000002"><a xlink:title=" ">
<path fill="none" stroke="#63b8ff" d="M113.12,-10.38C121.06,-10.38 129.28,-10.38 137.38,-10.38"/>
<polygon fill="#63b8ff" stroke="#63b8ff" points="137.19,-13.88 147.19,-10.38 137.19,-6.88 137.19,-13.88"/>
</a>
</g>
</g>
</g>
</svg>
