<?xml version="1.0" encoding="UTF-8" standalone="no"?>
<!DOCTYPE svg PUBLIC "-//W3C//DTD SVG 1.1//EN"
 "http://www.w3.org/Graphics/SVG/1.1/DTD/svg11.dtd">
<!-- Generated by graphviz version 10.0.1 (20240210.2158)
 -->
<!-- Title: new&#45;file.main Pages: 1 -->
<svg width="255pt" height="47pt"
 viewBox="0.00 0.00 254.50 46.75" xmlns="http://www.w3.org/2000/svg" xmlns:xlink="http://www.w3.org/1999/xlink">
<g id="graph0" class="graph" transform="scale(1 1) rotate(0) translate(4 42.75)">
<title>new&#45;file.main</title>
<!-- Node1 -->
<g id="Node000001" class="node">
<title>Node1</title>
<g id="a_Node000001"><a xlink:title=" ">
<polygon fill="#999999" stroke="#666666" points="82.75,-20.75 0,-20.75 0,0 82.75,0 82.75,-20.75"/>
<text text-anchor="middle" x="41.38" y="-7.25" font-family="Helvetica,sans-Serif" font-size="10.00">new&#45;file.main</text>
</a>
</g>
</g>
<!-- Node1&#45;&gt;Node1 -->
<g id="edge2_Node000001_Node000001" class="edge">
<title>Node1&#45;&gt;Node1</title>
<g id="a_edge2_Node000001_Node000001"><a xlink:title=" ">
<path fill="none" stroke="#63b8ff" d="M18.61,-21.15C9.51,-29.81 17.1,-38.75 41.38,-38.75 54.65,-38.75 62.94,-36.08 66.23,-32.24"/>
<polygon fill="#63b8ff" stroke="#63b8ff" points="69.71,-31.81 64.42,-22.63 62.83,-33.11 69.71,-31.81"/>
</a>
</g>
</g>
<!-- Node2 -->
<g id="Node000002" class="node">
<title>Node2</title>
<g id="a_Node000002"><a xlink:href="namespacenew-file.html#a6fb638eeaf2b52dd6cceb34e2d11d88b" target="_top" xlink:title=" ">
<polygon fill="white" stroke="#666666" points="246.5,-20.75 118.75,-20.75 118.75,0 246.5,0 246.5,-20.75"/>
<text text-anchor="middle" x="182.62" y="-7.25" font-family="Helvetica,sans-Serif" font-size="10.00">new&#45;file.create_header</text>
</a>
</g>
</g>
<!-- Node1&#45;&gt;Node2 -->
<g id="edge1_Node000001_Node000002" class="edge">
<title>Node1&#45;&gt;Node2</title>
<g id="a_edge1_Node000001_Node000002"><a xlink:title=" ">
<path fill="none" stroke="#63b8ff" d="M83.03,-10.38C90.64,-10.38 98.82,-10.38 107.09,-10.38"/>
<polygon fill="#63b8ff" stroke="#63b8ff" points="106.87,-13.88 116.87,-10.38 106.87,-6.88 106.87,-13.88"/>
</a>
</g>
</g>
</g>
</svg>
