<?xml version="1.0" encoding="UTF-8" standalone="no"?>
<!DOCTYPE svg PUBLIC "-//W3C//DTD SVG 1.1//EN"
 "http://www.w3.org/Graphics/SVG/1.1/DTD/svg11.dtd">
<!-- Generated by graphviz version 10.0.1 (20240210.2158)
 -->
<!-- Title: neura&#45;doc.serve_docs Pages: 1 -->
<svg width="286pt" height="47pt"
 viewBox="0.00 0.00 286.00 46.75" xmlns="http://www.w3.org/2000/svg" xmlns:xlink="http://www.w3.org/1999/xlink">
<g id="graph0" class="graph" transform="scale(1 1) rotate(0) translate(4 42.75)">
<title>neura&#45;doc.serve_docs</title>
<!-- Node1 -->
<g id="Node000001" class="node">
<title>Node1</title>
<g id="a_Node000001"><a xlink:title=" ">
<polygon fill="#999999" stroke="#666666" points="122.5,-20.75 0,-20.75 0,0 122.5,0 122.5,-20.75"/>
<text text-anchor="middle" x="61.25" y="-7.25" font-family="Helvetica,sans-Serif" font-size="10.00">neura&#45;doc.serve_docs</text>
</a>
</g>
</g>
<!-- Node1&#45;&gt;Node1 -->
<g id="edge2_Node000001_Node000001" class="edge">
<title>Node1&#45;&gt;Node1</title>
<g id="a_edge2_Node000001_Node000001"><a xlink:title=" ">
<path fill="none" stroke="#63b8ff" d="M35.95,-21.15C25.83,-29.81 34.27,-38.75 61.25,-38.75 76.01,-38.75 85.22,-36.08 88.88,-32.24"/>
<polygon fill="#63b8ff" stroke="#63b8ff" points="92.34,-31.7 86.86,-22.63 85.49,-33.13 92.34,-31.7"/>
</a>
</g>
</g>
<!-- Node2 -->
<g id="Node000002" class="node">
<title>Node2</title>
<g id="a_Node000002"><a xlink:href="namespaceneura-doc.html#a57c6c4c403a6584efc308ef80151fe94" target="_top" xlink:title=" ">
<polygon fill="white" stroke="#666666" points="278,-20.75 158.5,-20.75 158.5,0 278,0 278,-20.75"/>
<text text-anchor="middle" x="218.25" y="-7.25" font-family="Helvetica,sans-Serif" font-size="10.00">neura&#45;doc.build_docs</text>
</a>
</g>
</g>
<!-- Node1&#45;&gt;Node2 -->
<g id="edge1_Node000001_Node000002" class="edge">
<title>Node1&#45;&gt;Node2</title>
<g id="a_edge1_Node000001_Node000002"><a xlink:title=" ">
<path fill="none" stroke="#63b8ff" d="M122.62,-10.38C130.54,-10.38 138.7,-10.38 146.77,-10.38"/>
<polygon fill="#63b8ff" stroke="#63b8ff" points="146.55,-13.88 156.55,-10.38 146.55,-6.88 146.55,-13.88"/>
</a>
</g>
</g>
</g>
</svg>
